# xmcd
#
# Track frame offsets: 
#        150
#        21945
#        37791
#        49416
#        72444
#        85500
#
# Disc length: 1598 seconds
#
# Revision: 0
# Processed by: cddbd v1.5.2PL0 Copyright (c) Steve Scherf et al.
# Submitted via: ExactAudioCopy v1.0b1
#
DISCID=44063c06
DTITLE=Miraculous Mule - Miraculous Mule
DYEAR=2011
DGENRE=Blues
TTITLE0=Wayfaring Stranger
TTITLE1=Run On
TTITLE2=No More My Lord
TTITLE3=I Know I've Better Changed
TTITLE4=Prettiest Train
TTITLE5=Bonus Track
EXTD=
EXTT0=
EXTT1=
EXTT2=
EXTT3=
EXTT4=
EXTT5=
PLAYORDER=
